# Blender v2.91.0 OBJ File: 'tarotCard.blend'
# www.blender.org
mtllib tarotCard2.mtl
o Cube_Cube.001
v -1.000000 -0.016471 1.720597
v -1.000000 0.016471 1.720597
v -1.000000 -0.016471 -1.720597
v -1.000000 0.016471 -1.720597
v 1.000000 -0.016471 1.720597
v 1.000000 0.016471 1.720597
v 1.000000 -0.016471 -1.720597
v 1.000000 0.016471 -1.720597
vt 0.339737 0.197223
vt 0.340109 0.225993
vt 0.360255 0.224418
vt 0.359882 0.195648
vt 0.322440 0.255159
vt 0.322440 0.212562
vt 0.305104 0.212562
vt 0.305104 0.255159
vt 0.336163 0.228186
vt 0.336163 0.199217
vt 0.357612 0.199217
vt 0.357612 0.228186
vt 0.294810 0.784354
vt 0.294810 0.811100
vt 0.283925 0.811100
vt 0.283925 0.784354
vt 0.269286 0.970155
vt 0.480746 0.968369
vt 0.480019 0.065690
vt 0.269286 0.061226
vt 0.341293 0.290251
vt 0.336842 0.290251
vt 0.336842 0.271435
vt 0.341293 0.271435
vn -1.0000 0.0000 0.0000
vn 0.0000 0.0000 -1.0000
vn 1.0000 0.0000 0.0000
vn 0.0000 0.0000 1.0000
vn 0.0000 -1.0000 0.0000
vn 0.0000 1.0000 0.0000
g Cube_Cube.001_tarot
usemtl tarot
s off
f 1/1/1 2/2/1 4/3/1 3/4/1
f 3/5/2 4/6/2 8/7/2 7/8/2
f 7/9/3 8/10/3 6/11/3 5/12/3
f 5/13/4 6/14/4 2/15/4 1/16/4
f 3/17/5 7/18/5 5/19/5 1/20/5
f 8/21/6 4/22/6 2/23/6 6/24/6
