# Blender v2.91.0 OBJ File: 'tarotCard.blend'
# www.blender.org
mtllib tarotCard4.mtl
o Cube_Cube.001
v -1.000000 -0.016471 1.720597
v -1.000000 0.016471 1.720597
v -1.000000 -0.016471 -1.720597
v -1.000000 0.016471 -1.720597
v 1.000000 -0.016471 1.720597
v 1.000000 0.016471 1.720597
v 1.000000 -0.016471 -1.720597
v 1.000000 0.016471 -1.720597
vt 0.774666 0.557201
vt 0.775038 0.585970
vt 0.795184 0.584395
vt 0.794811 0.555625
vt 0.442273 0.862552
vt 0.442273 0.819955
vt 0.424937 0.819955
vt 0.424937 0.862552
vt 0.396448 0.848911
vt 0.396448 0.819942
vt 0.417897 0.819942
vt 0.417897 0.848911
vt 0.447011 0.811817
vt 0.447011 0.838563
vt 0.436126 0.838563
vt 0.436126 0.811817
vt 0.272787 0.963483
vt 0.484247 0.967322
vt 0.485729 0.033212
vt 0.270327 0.033927
vt 0.427761 0.855236
vt 0.423311 0.855236
vt 0.423311 0.836420
vt 0.427761 0.836420
vn -1.0000 0.0000 0.0000
vn 0.0000 0.0000 -1.0000
vn 1.0000 0.0000 0.0000
vn 0.0000 0.0000 1.0000
vn 0.0000 -1.0000 0.0000
vn 0.0000 1.0000 0.0000
g Cube_Cube.001_tarot
usemtl tarot
s off
f 1/1/1 2/2/1 4/3/1 3/4/1
f 3/5/2 4/6/2 8/7/2 7/8/2
f 7/9/3 8/10/3 6/11/3 5/12/3
f 5/13/4 6/14/4 2/15/4 1/16/4
f 3/17/5 7/18/5 5/19/5 1/20/5
f 8/21/6 4/22/6 2/23/6 6/24/6
