# Blender v2.91.0 OBJ File: 'tarotCard.blend'
# www.blender.org
mtllib tarotCard3.mtl
o Cube_Cube.001
v -1.000000 -0.016471 1.720597
v -1.000000 0.016471 1.720597
v -1.000000 -0.016471 -1.720597
v -1.000000 0.016471 -1.720597
v 1.000000 -0.016471 1.720597
v 1.000000 0.016471 1.720597
v 1.000000 -0.016471 -1.720597
v 1.000000 0.016471 -1.720597
vt 0.774666 0.557201
vt 0.775038 0.585970
vt 0.795184 0.584395
vt 0.794811 0.555625
vt 0.778429 0.581388
vt 0.778429 0.538791
vt 0.761093 0.538791
vt 0.761093 0.581388
vt 0.770177 0.558915
vt 0.770177 0.529946
vt 0.791625 0.529946
vt 0.791625 0.558915
vt 0.780099 0.608865
vt 0.780099 0.635611
vt 0.769214 0.635611
vt 0.769214 0.608865
vt 0.744846 0.967173
vt 0.956306 0.971012
vt 0.956037 0.070583
vt 0.745304 0.068369
vt 0.765306 0.579884
vt 0.760856 0.579884
vt 0.760856 0.561068
vt 0.765306 0.561068
vn -1.0000 0.0000 0.0000
vn 0.0000 0.0000 -1.0000
vn 1.0000 0.0000 0.0000
vn 0.0000 0.0000 1.0000
vn 0.0000 -1.0000 0.0000
vn 0.0000 1.0000 0.0000
g Cube_Cube.001_tarot
usemtl tarot
s off
f 1/1/1 2/2/1 4/3/1 3/4/1
f 3/5/2 4/6/2 8/7/2 7/8/2
f 7/9/3 8/10/3 6/11/3 5/12/3
f 5/13/4 6/14/4 2/15/4 1/16/4
f 3/17/5 7/18/5 5/19/5 1/20/5
f 8/21/6 4/22/6 2/23/6 6/24/6
