# Blender v2.91.0 OBJ File: 'tarotCard.blend'
# www.blender.org
mtllib tarotCard.mtl
o Cube_Cube.001
v -1.000000 -0.016471 1.720597
v -1.000000 0.016471 1.720597
v -1.000000 -0.016471 -1.720597
v -1.000000 0.016471 -1.720597
v 1.000000 -0.016471 1.720597
v 1.000000 0.016471 1.720597
v 1.000000 -0.016471 -1.720597
v 1.000000 0.016471 -1.720597
vt 0.196337 0.146596
vt 0.196932 0.192520
vt 0.229090 0.190006
vt 0.228495 0.144081
vt 0.216226 0.223661
vt 0.216226 0.181064
vt 0.198890 0.181064
vt 0.198890 0.223661
vt 0.188099 0.199947
vt 0.188099 0.148085
vt 0.226497 0.148085
vt 0.226497 0.199947
vt 0.209881 0.596187
vt 0.209881 0.636433
vt 0.193502 0.636433
vt 0.193502 0.596187
vt 0.030484 0.970155
vt 0.241944 0.968369
vt 0.241217 0.065690
vt 0.030484 0.061226
vt 0.776281 0.099473
vt 0.771830 0.099473
vt 0.771830 0.080658
vt 0.776281 0.080658
vn -1.0000 0.0000 0.0000
vn 0.0000 0.0000 -1.0000
vn 1.0000 0.0000 0.0000
vn 0.0000 0.0000 1.0000
vn 0.0000 -1.0000 0.0000
vn 0.0000 1.0000 0.0000
g Cube_Cube.001_tarot
usemtl tarot
s off
f 1/1/1 2/2/1 4/3/1 3/4/1
f 3/5/2 4/6/2 8/7/2 7/8/2
f 7/9/3 8/10/3 6/11/3 5/12/3
f 5/13/4 6/14/4 2/15/4 1/16/4
f 3/17/5 7/18/5 5/19/5 1/20/5
f 8/21/6 4/22/6 2/23/6 6/24/6
